{
    "asset" : {
        "generator" : "Khronos glTF Blender I/O v1.1.46",
        "version" : "2.0"
    },
    "scene" : 0,
    "scenes" : [
        {
            "name" : "Scene",
            "nodes" : [
                0,
                1,
                2,
                3,
                4,
                5
            ]
        }
    ],
    "nodes" : [
        {
            "name" : "Light",
            "rotation" : [
                0.16907575726509094,
                0.7558803558349609,
                -0.27217137813568115,
                0.570947527885437
            ],
            "translation" : [
                4.076245307922363,
                5.903861999511719,
                -1.0054539442062378
            ]
        },
        {
            "mesh" : 0,
            "name" : "king1",
            "scale" : [
                1.0537902116775513,
                1.0537902116775513,
                1.0537902116775513
            ],
            "translation" : [
                -0.02785172127187252,
                1.1925153732299805,
                -0.0327521376311779
            ]
        },
        {
            "name" : "VRayLight01.001",
            "rotation" : [
                -0.9762959480285645,
                0,
                0,
                0.21643976867198944
            ],
            "scale" : [
                0.0010000000474974513,
                0.0010000000474974513,
                0.0010000000474974513
            ],
            "translation" : [
                38.28112030029297,
                176.5500030517578,
                103.72807312011719
            ]
        },
        {
            "name" : "VRayLight01",
            "rotation" : [
                -0.9762959480285645,
                0,
                0,
                0.21643976867198944
            ],
            "scale" : [
                0.0010000000474974513,
                0.0010000000474974513,
                0.0010000000474974513
            ],
            "translation" : [
                38.28112030029297,
                176.5500030517578,
                103.72807312011719
            ]
        },
        {
            "name" : "Lamp",
            "rotation" : [
                0.16907575726509094,
                0.7558804154396057,
                -0.27217134833335876,
                0.5709474086761475
            ],
            "translation" : [
                4.076245307922363,
                5.903861999511719,
                -1.0054539442062378
            ]
        },
        {
            "name" : "Camera.001",
            "rotation" : [
                0.483536034822464,
                0.3368716239929199,
                -0.20870371162891388,
                0.7804826498031616
            ],
            "translation" : [
                7.481131553649902,
                5.34366512298584,
                6.507639408111572
            ]
        }
    ],
    "materials" : [
        {
            "doubleSided" : true,
            "emissiveFactor" : [
                0,
                0,
                0
            ],
            "name" : ",Black ",
            "pbrMetallicRoughness" : {
                "roughnessFactor" : 0.6932139992713928
            }
        }
    ],
    "meshes" : [
        {
            "name" : "Untitled.038",
            "primitives" : [
                {
                    "attributes" : {
                        "POSITION" : 0,
                        "NORMAL" : 1,
                        "TEXCOORD_0" : 2
                    },
                    "indices" : 3,
                    "material" : 0
                }
            ]
        }
    ],
    "accessors" : [
        {
            "bufferView" : 0,
            "componentType" : 5126,
            "count" : 1991,
            "max" : [
                0.643796443939209,
                1.2801847457885742,
                0.6440486907958984
            ],
            "min" : [
                -0.643801212310791,
                -1.0637255907058716,
                -0.6435451507568359
            ],
            "type" : "VEC3"
        },
        {
            "bufferView" : 1,
            "componentType" : 5126,
            "count" : 1991,
            "type" : "VEC3"
        },
        {
            "bufferView" : 2,
            "componentType" : 5126,
            "count" : 1991,
            "type" : "VEC2"
        },
        {
            "bufferView" : 3,
            "componentType" : 5123,
            "count" : 9270,
            "type" : "SCALAR"
        }
    ],
    "bufferViews" : [
        {
            "buffer" : 0,
            "byteLength" : 23892,
            "byteOffset" : 0
        },
        {
            "buffer" : 0,
            "byteLength" : 23892,
            "byteOffset" : 23892
        },
        {
            "buffer" : 0,
            "byteLength" : 15928,
            "byteOffset" : 47784
        },
        {
            "buffer" : 0,
            "byteLength" : 18540,
            "byteOffset" : 63712
        }
    ],
    "buffers" : [
        {
            "byteLength" : 82252,
            "uri" : "bking.bin"
        }
    ]
}
